<svg width="48" height="48" viewBox="0 0 48 48" fill="none" xmlns="http://www.w3.org/2000/svg">
<path d="M44.5 0L3.5 4.16976e-06C1.5 4.16976e-06 0 1.5 0 3.50008V44.5C0 47 2 48 3.5 48L44.5 48C46.5 48 48 46.5 48 44.5V3.59252C48 1.5 46.5 -3.37316e-06 44.5 0Z" fill="#E9EDF7"/>
<path d="M24 9.62457C15.7118 9.62457 9 16.2246 9 24.3655C9 30.8782 13.2982 36.4037 19.2573 38.3509C20.0073 38.4873 20.28 38.0318 20.28 37.6418C20.28 37.2518 20.28 36.3628 20.2636 35.1355C16.0909 36.0246 15.21 33.1582 15.21 33.1582C14.5282 31.4564 13.5409 31.0009 13.5409 31.0009C12.1773 30.0873 13.6473 30.1064 13.6473 30.1064C15.1527 30.2073 15.9436 31.6255 15.9436 31.6255C17.28 33.8782 19.4536 33.2264 20.3073 32.85C20.3797 32.0983 20.7228 31.3985 21.2727 30.8809C17.9427 30.51 14.4545 29.2446 14.4545 23.5964C14.4252 22.1288 14.9703 20.7078 15.9736 19.6364C15.8045 19.2628 15.3 17.7655 16.1045 15.7337C16.1045 15.7337 17.3618 15.3382 20.2309 17.2446C22.6871 16.5828 25.2747 16.5828 27.7309 17.2446C30.5809 15.3355 31.8218 15.7337 31.8218 15.7337C32.64 17.7655 32.1218 19.2628 31.9718 19.6364C32.979 20.7046 33.5307 22.1229 33.51 23.5909C33.51 29.2528 30.0027 30.4991 26.6673 30.8618C27.1909 31.3037 27.6791 32.2091 27.6791 33.5891C27.6791 35.5609 27.66 37.1346 27.66 37.6255C27.66 38.0128 27.9327 38.4737 28.6909 38.3264C34.6909 36.39 38.9864 30.8618 38.9864 24.36C39 16.2246 32.2827 9.62457 24 9.62457Z" fill="#011A43"/>
</svg>
