<svg width="64" height="64" viewBox="0 0 64 64" fill="none" xmlns="http://www.w3.org/2000/svg">
<rect width="64" height="64" rx="4" fill="#004EFC"/>
<g clip-path="url(#clip0_1_2390)">
<path d="M50.0173 20.8759L32.6246 10.8342C32.2379 10.6109 31.7614 10.6109 31.3746 10.8342L13.9819 20.8759C13.5952 21.0991 13.3569 21.5118 13.3569 21.9584V42.0417C13.3569 42.4883 13.5952 42.9009 13.9819 43.1242L31.3746 53.1659C31.7614 53.3892 32.2379 53.3892 32.6246 53.1659L50.0173 43.1242C50.404 42.9009 50.6423 42.4883 50.6423 42.0417V21.9584C50.6423 21.5118 50.4041 21.0991 50.0173 20.8759ZM48.1423 41.32L31.9996 50.6399L15.8569 41.32V22.68L31.9996 13.3601L48.1423 22.68V41.32Z" fill="white"/>
<path d="M26.0636 26.7333C25.3732 26.7333 24.8136 27.293 24.8136 27.9833V32.9801L22.5313 27.5026C22.3372 27.0368 21.8821 26.7333 21.3775 26.7333H20.0386C19.3482 26.7333 18.7886 27.293 18.7886 27.9833V36.0167C18.8501 37.6734 21.2277 37.6722 21.2886 36.0167V31.02L23.5708 36.4974C23.7649 36.9633 24.2201 37.2667 24.7247 37.2667H26.0636C26.7539 37.2667 27.3136 36.707 27.3136 36.0167V27.9833C27.3136 27.293 26.7539 26.7333 26.0636 26.7333Z" fill="white"/>
<path d="M29.4995 27.9833V36.0167C29.561 37.6734 31.9386 37.6722 31.9995 36.0167V33.9194H34.6773C36.334 33.8579 36.3328 31.4803 34.6773 31.4194H31.9995V29.2333H36.0162C37.6729 29.1718 37.6717 26.7943 36.0162 26.7333H30.7495C30.0592 26.7333 29.4995 27.293 29.4995 27.9833Z" fill="white"/>
<path d="M39.3637 29.2333H40.7914V36.0167C40.8529 37.6734 43.2305 37.6722 43.2914 36.0167V29.2333H44.7192C46.3759 29.1718 46.3747 26.7943 44.7192 26.7333H39.3636C37.7069 26.7948 37.7082 29.1724 39.3637 29.2333Z" fill="white"/>
</g>
<defs>
<clipPath id="clip0_1_2390">
<rect width="42.6667" height="42.6667" fill="white" transform="translate(10.6665 10.6667)"/>
</clipPath>
</defs>
</svg>
