<svg width="64" height="64" viewBox="0 0 64 64" fill="none" xmlns="http://www.w3.org/2000/svg">
<rect width="64" height="64" rx="4" fill="#004EFC"/>
<g clip-path="url(#clip0_1_2379)">
<path d="M51.3932 32.179V26.1823C51.3932 24.1489 49.816 22.4952 47.8232 22.3348L42.2542 12.6077C41.7381 11.7081 40.9047 11.0651 39.9076 10.7981C38.9151 10.5329 37.8773 10.6722 36.9891 11.1892L17.8982 22.3036H14.5453C12.4061 22.3036 10.6665 24.0431 10.6665 26.1823V49.4547C10.6665 51.5938 12.406 53.3334 14.5453 53.3334H47.5144C49.6536 53.3334 51.3932 51.5939 51.3932 49.4547V43.4579C52.5195 43.0563 53.3325 41.9901 53.3325 40.7275V34.9094C53.3325 33.6469 52.5195 32.5807 51.3932 32.179ZM45.5697 22.3036H37.1179L43.4568 18.6131L45.5697 22.3036ZM42.4933 16.9301L33.2635 22.3036H29.4351L41.536 15.2582L42.4933 16.9301ZM37.9653 12.8653C38.4038 12.6086 38.916 12.5404 39.4057 12.6712C39.9009 12.8037 40.3138 13.1238 40.5705 13.5717L40.5725 13.5752L25.5809 22.3036H21.7527L37.9653 12.8653ZM49.4538 49.4547C49.4538 50.5237 48.5835 51.394 47.5144 51.394H14.5453C13.4762 51.394 12.6059 50.5237 12.6059 49.4547V26.1823C12.6059 25.1132 13.4762 24.243 14.5453 24.243H47.5144C48.5835 24.243 49.4538 25.1132 49.4538 26.1823V32.0004H43.6357C40.4274 32.0004 37.8176 34.6102 37.8176 37.8185C37.8176 41.0268 40.4274 43.6366 43.6357 43.6366H49.4538V49.4547ZM51.3932 40.7275C51.3932 41.2625 50.9586 41.6972 50.4235 41.6972H43.6357C41.4965 41.6972 39.7569 39.9577 39.7569 37.8185C39.7569 35.6793 41.4965 33.9397 43.6357 33.9397H50.4235C50.9585 33.9397 51.3932 34.3744 51.3932 34.9094V40.7275Z" fill="white"/>
<path d="M43.6356 35.8791C42.5665 35.8791 41.6963 36.7493 41.6963 37.8184C41.6963 38.8875 42.5665 39.7578 43.6356 39.7578C44.7047 39.7578 45.575 38.8875 45.575 37.8184C45.575 36.7493 44.7048 35.8791 43.6356 35.8791Z" fill="white"/>
</g>
<defs>
<clipPath id="clip0_1_2379">
<rect width="42.6667" height="42.6667" fill="white" transform="translate(10.6665 10.6666)"/>
</clipPath>
</defs>
</svg>
