<svg width="64" height="64" viewBox="0 0 64 64" fill="none" xmlns="http://www.w3.org/2000/svg">
<rect width="64" height="64" rx="4" fill="#004EFC"/>
<path d="M28.6536 50.3333H15.7337C14.5853 50.3333 13.6665 49.4145 13.6665 48.2661V35.3461C13.6665 34.1977 14.5853 33.279 15.7337 33.279H28.6536C29.8021 33.279 30.7208 34.1977 30.7208 35.3461V48.2661C30.7208 49.4145 29.8021 50.3333 28.6536 50.3333ZM28.6536 35.3461H15.7337V48.2661H28.6536V35.3461ZM28.6536 30.6375H15.7337C14.5853 30.6375 13.6665 29.7188 13.6665 28.5704V15.6504C13.6665 14.502 14.5853 13.5833 15.7337 13.5833H28.6536C29.8021 13.5833 30.7208 14.502 30.7208 15.6504V28.5704C30.7208 29.7188 29.8021 30.6375 28.6536 30.6375ZM28.6536 15.6504H15.7337V28.5704H28.6536V15.6504ZM48.3493 50.3333H35.4294C34.281 50.3333 33.3622 49.4145 33.3622 48.2661V35.3461C33.3622 34.1977 34.281 33.279 35.4294 33.279H48.3493C49.4978 33.279 50.4165 34.1977 50.4165 35.3461V48.2661C50.4165 49.4145 49.4978 50.3333 48.3493 50.3333ZM48.3493 35.3461H35.4294V48.2661H48.3493V35.3461ZM49.3829 21.1055H42.8942V14.6168C42.8942 14.0426 42.4349 13.5833 41.8606 13.5833C41.2864 13.5833 40.8271 14.0426 40.8271 14.6168V21.0481H34.3958C33.8216 21.0481 33.3622 21.5075 33.3622 22.0817C33.3622 22.6559 33.8216 23.1153 34.3958 23.1153H40.8271V29.5465C40.8271 30.1208 41.2864 30.5801 41.8606 30.5801C42.4349 30.5801 42.8942 30.1208 42.8942 29.5465V23.1727H49.3255C49.8997 23.1727 50.3591 22.7133 50.3591 22.1391C50.3591 21.5649 49.9571 21.1055 49.3829 21.1055Z" fill="white"/>
</svg>
