<svg width="64" height="64" viewBox="0 0 64 64" fill="none" xmlns="http://www.w3.org/2000/svg">
<rect width="64" height="64" rx="4" fill="#004EFC"/>
<g clip-path="url(#clip0_1_2359)">
<path d="M48.7355 10.6667H38.8628C36.6955 10.6667 33.797 11.8672 32.2648 13.3998L12.009 33.6553C11.1431 34.5209 10.6665 35.6752 10.6665 36.9059C10.6665 38.1367 11.1434 39.291 12.009 40.1566L23.8429 51.9909C24.7085 52.8565 25.8628 53.3334 27.0936 53.3334C28.3241 53.3334 29.4787 52.8565 30.3446 51.9909L50.6001 31.735C52.1327 30.2028 53.3332 27.3044 53.3332 25.1371V15.2637C53.3328 12.7289 51.2703 10.6667 48.7355 10.6667ZM50.8332 25.1371C50.8332 26.6446 49.8983 28.9017 48.8325 29.9675L28.5767 50.223C28.1831 50.6166 27.6564 50.8334 27.0936 50.8334C26.5308 50.8334 26.0044 50.6166 25.6108 50.2233L13.7769 38.3887C13.3833 37.9951 13.1665 37.4684 13.1665 36.9059C13.1665 36.3431 13.383 35.8164 13.7765 35.4232L34.0324 15.1673C35.0981 14.1016 37.3553 13.1667 38.8628 13.1667H48.7355C49.8921 13.1667 50.8328 14.1074 50.8332 15.2637V25.1371Z" fill="white"/>
<path d="M22.2756 38.291C21.8212 37.8369 21.9348 37.1741 22.6161 36.4922C23.4117 35.6969 23.9892 35.8389 24.2828 35.5456C24.6236 35.2047 24.3395 34.6175 24.1217 34.4001C23.4967 33.7751 22.124 34.8828 21.5654 35.4414C20.4765 36.5303 19.7477 38.2249 21.1581 39.6357C23.402 41.8796 26.0058 38.4049 27.426 39.8252C27.9941 40.3932 27.7574 41.1409 27.1894 41.7093C26.2236 42.6748 25.2389 42.2015 24.8508 42.5895C24.5572 42.8831 24.7089 43.527 24.9739 43.7923C25.523 44.3415 27.0947 44.0195 28.3349 42.779C29.6415 41.4727 29.8876 39.8249 28.5338 38.471C26.0816 36.0192 23.4495 39.4655 22.2756 38.291Z" fill="white"/>
<path d="M35.5113 34.2204L27.7285 30.0925C27.3593 29.8936 26.8763 30.1114 26.5166 30.4714C26.1663 30.8213 25.9485 31.3044 26.1474 31.6739L30.2753 39.4564C30.3037 39.5036 30.3323 39.5508 30.3512 39.57C30.6542 39.8728 31.3076 39.6361 31.6386 39.3047C31.847 39.0967 31.942 38.8692 31.8092 38.642L30.9098 37.0232L33.0781 34.8549L34.6969 35.7546C34.9244 35.8868 35.1513 35.7924 35.3597 35.584C35.691 35.2526 35.9182 34.5896 35.6246 34.2963C35.5966 34.2679 35.5585 34.2487 35.5113 34.2204ZM30.1998 35.8018L28.1168 32.071L31.8473 34.1543L30.1998 35.8018Z" fill="white"/>
<path d="M39.2504 29.5342L36.9402 31.8444L31.4773 26.3812C31.212 26.1163 30.7863 26.3152 30.4832 26.6179C30.171 26.9304 29.9812 27.3471 30.2465 27.6124L36.4005 33.7666C36.6564 34.0222 37.0538 33.8897 37.3286 33.615L40.3299 30.6137C40.576 30.3676 40.4246 29.9698 40.1593 29.7048C39.8849 29.4301 39.4969 29.2878 39.2504 29.5342Z" fill="white"/>
<path d="M44.2022 24.5827L41.5228 27.2621L39.6198 25.3591L41.0589 23.9199C41.3239 23.655 41.1914 23.276 40.9737 23.0583C40.7181 22.8027 40.3392 22.7083 40.0931 22.9544L38.654 24.3932L36.7604 22.4997L39.4398 19.8206C39.6859 19.5742 39.5723 19.1768 39.279 18.8831C39.0231 18.6276 38.6257 18.4759 38.3604 18.7409L34.9899 22.1117C34.7155 22.3861 34.5827 22.7839 34.8386 23.0394L40.9834 29.1839C41.239 29.4398 41.6364 29.3073 41.9112 29.0326L45.2816 25.6621C45.5469 25.3971 45.3952 24.9994 45.1397 24.7438C44.846 24.4502 44.4483 24.3366 44.2022 24.5827Z" fill="white"/>
<path d="M45.4556 17.3666C45.1265 17.3666 44.8039 17.5 44.5715 17.7325C44.339 17.9649 44.2056 18.2875 44.2056 18.6166C44.2056 18.946 44.339 19.2676 44.5715 19.5C44.8039 19.7334 45.1265 19.8666 45.4556 19.8666C45.7847 19.8666 46.1063 19.7334 46.339 19.5C46.5721 19.2676 46.7056 18.945 46.7056 18.6166C46.7056 18.2875 46.5721 17.9649 46.339 17.7325C46.1063 17.5 45.7847 17.3666 45.4556 17.3666Z" fill="white"/>
</g>
<defs>
<clipPath id="clip0_1_2359">
<rect width="42.6667" height="42.6667" fill="white" transform="translate(10.6665 10.6667)"/>
</clipPath>
</defs>
</svg>
