<svg width="48" height="48" viewBox="0 0 48 48" fill="none" xmlns="http://www.w3.org/2000/svg">
<g clip-path="url(#clip0_1_2401)">
<path d="M44.5382 0H3.46179C1.5498 0 0 1.5498 0 3.46179V44.5382C0 46.4502 1.5498 48 3.46179 48H44.5382C46.4502 48 48 46.4502 48 44.5382V3.46179C48 1.5498 46.4502 0 44.5382 0ZM17.0259 36.2812H11.1808V18.6962H17.0259V36.2812ZM14.1035 16.2949H14.0654C12.104 16.2949 10.8354 14.9447 10.8354 13.2572C10.8354 11.5316 12.1428 10.2188 14.1423 10.2188C16.1418 10.2188 17.3723 11.5316 17.4104 13.2572C17.4104 14.9447 16.1418 16.2949 14.1035 16.2949ZM38.1021 36.2812H32.2577V26.8737C32.2577 24.5094 31.4114 22.897 29.2965 22.897C27.6819 22.897 26.7202 23.9846 26.2976 25.0345C26.1431 25.4103 26.1053 25.9354 26.1053 26.4609V36.2812H20.2606C20.2606 36.2812 20.3372 20.3459 20.2606 18.6962H26.1053V21.186C26.8821 19.9878 28.2719 18.2834 31.3729 18.2834C35.2185 18.2834 38.1021 20.7968 38.1021 26.198V36.2812Z" fill="#E9EEF7"/>
</g>
<defs>
<clipPath id="clip0_1_2401">
<rect width="48" height="48" fill="white"/>
</clipPath>
</defs>
</svg>
