<svg width="212" height="32" viewBox="0 0 212 32" fill="none" xmlns="http://www.w3.org/2000/svg">
<path fill-rule="evenodd" clip-rule="evenodd" d="M189.441 0.57776C189.134 0.895878 188.882 1.47511 188.882 1.86494C188.882 2.48463 188.619 2.57436 186.804 2.57436C183.54 2.57436 183.512 2.64534 183.628 10.5199C183.689 14.6706 183.857 17.0688 184.081 17.0132C184.277 16.9651 184.517 15.5583 184.614 13.8872L184.792 10.8491L189.683 10.7469C193.706 10.6626 194.573 10.5486 194.573 10.1033C194.573 9.65239 193.738 9.56192 189.579 9.56192H184.585L184.688 6.71173L184.792 3.86154L186.837 3.75121C188.881 3.64088 188.882 3.64199 188.882 4.70557C188.882 5.82946 189.816 6.98756 190.722 6.98756C191.538 6.98756 192.439 5.76547 192.439 4.65997V3.67766H197.732C202.91 3.67766 203.03 3.69568 203.233 4.49888C203.547 5.74046 204.112 4.86849 204.242 2.94213C204.321 1.76748 204.508 1.28718 204.887 1.28718C205.286 1.28718 205.447 1.81272 205.526 3.37168C205.619 5.20058 205.543 5.48523 204.904 5.69486C204.043 5.9773 203.953 6.5547 204.722 6.85994C205.527 7.17916 206.665 5.92802 206.665 4.72396C206.665 3.70083 206.709 3.67766 208.621 3.67766H210.577V6.61979V9.56192H203.642C197.714 9.56192 196.707 9.64209 196.707 10.1136C196.707 10.585 197.714 10.6652 203.642 10.6652H210.577V16.3262C210.577 20.8435 210.678 22.0273 211.076 22.1851C211.35 22.294 211.67 22.2841 211.787 22.1631C211.904 22.0424 212 17.9532 212 13.0763C212 2.46146 212.034 2.57436 208.779 2.57436C206.961 2.57436 206.665 2.47911 206.665 1.89583C206.665 0.817544 205.419 -0.125408 204.357 0.150049C203.708 0.318486 203.381 0.704272 203.231 1.48099L203.02 2.57436H197.729C192.824 2.57436 192.439 2.52508 192.439 1.89583C192.439 1.08638 191.367 0 190.569 0C190.256 0 189.749 0.26001 189.441 0.57776ZM191.194 3.5243C191.194 5.21345 191.075 5.70037 190.661 5.70037C190.274 5.70037 190.097 5.20536 190.017 3.90825C189.89 1.83515 190.121 0.978626 190.75 1.19524C191.038 1.2949 191.194 2.11098 191.194 3.5243ZM87.2439 4.25027C86.6574 4.67467 86.4533 5.19175 86.4533 6.25202C86.4533 8.5307 88.6544 9.63216 90.3111 8.1828C92.8256 5.98282 89.9469 2.29229 87.2439 4.25027ZM48.7253 5.52605C43.6696 6.39325 40.8148 10.1897 40.8404 16.0111C40.8624 20.9101 42.9412 24.5098 46.4843 25.783C49.019 26.6943 56.0678 26.1592 56.7588 25.0037C56.8477 24.8544 56.6653 23.9563 56.3527 23.0082C55.9092 21.6614 55.6577 21.3389 55.2035 21.5338C51.4254 23.1538 47.3243 22.3216 46.1165 19.6895C44.0598 15.2075 45.9561 9.96793 49.842 9.39532C50.8148 9.25189 52.1726 9.37068 53.3773 9.70388C54.4531 10.0018 55.434 10.1331 55.5571 9.99552C55.6801 9.85834 55.9789 9.10552 56.2211 8.32292C56.7222 6.70254 56.56 6.48335 54.4442 5.92103C52.3558 5.36571 50.4342 5.23294 48.7253 5.52605ZM1.34794 5.82211L0 6.06814L0.000710922 15.9978L0.00177798 25.9275L2.14923 26.0371L4.29668 26.1463V22.6353V19.1238H6.36589C10.229 19.1238 12.932 17.7701 14.2117 15.1946C14.4311 14.7526 14.6107 13.4117 14.6107 12.215C14.6107 7.85732 11.9902 5.83682 6.12618 5.67242C4.23978 5.61947 2.08948 5.68677 1.34794 5.82211ZM20.6569 5.84086L19.4121 6.06814L19.3171 15.7286L19.2225 25.3895L20.2063 25.7815C20.7803 26.0106 22.8947 26.1169 25.2804 26.0367C28.577 25.9264 29.7154 25.7381 31.1487 25.0666C34.801 23.355 36.3993 20.5129 36.3993 15.7305C36.3993 10.4262 33.7589 6.93239 29.0031 5.94494C26.856 5.49921 22.804 5.44845 20.6569 5.84086ZM69.3818 15.9978V26.1114H71.5157H73.6497V21.8821V17.6528H77.5619H81.4741V15.8264V14.0001L77.6508 13.8957L73.8275 13.7912L73.7208 11.6766L73.6141 9.56192H78.0776H82.5411V7.72309V5.88426H75.9614H69.3818V15.9978ZM9.22146 10.2055C9.62584 10.5593 10.0452 11.2628 10.1533 11.7685C10.5954 13.8387 8.69153 15.3778 5.63039 15.4256L4.29668 15.4462V12.504V9.56192H6.39114C7.86854 9.56192 8.70255 9.75169 9.22146 10.2055ZM29.1805 10.2062C31.0115 11.161 31.8601 12.9373 31.8601 15.8139C31.8601 19.9432 30.049 21.9553 25.9896 22.3359L23.8578 22.536V16.0489V9.56192L25.9028 9.56265C27.1416 9.56265 28.4337 9.81641 29.1805 10.2062ZM99.4347 10.4802C99.2391 10.549 98.4791 10.7086 97.7454 10.8355L96.4117 11.0665V18.5887V26.1114H98.3589H100.306L100.404 20.1352L100.502 14.159L101.943 14.0494C103.052 13.9652 103.543 14.1219 104.077 14.7305C104.683 15.4223 104.784 16.185 104.885 20.8336L105 26.1463L107.019 26.0371L109.037 25.9275L109.017 20.4037C108.999 15.7106 108.892 14.6599 108.306 13.4161C107.331 11.3504 105.202 10.2879 102.116 10.3265C100.837 10.3423 99.6304 10.4118 99.4347 10.4802ZM115.795 10.6244C114.918 10.8215 114.746 11.0271 114.828 11.7762C115.108 14.3285 115 14.2498 117.931 14.0553C120.168 13.9067 120.73 13.9865 121.316 14.5349C121.703 14.8964 122.019 15.4977 122.019 15.8709C122.019 16.4612 121.717 16.5495 119.696 16.5495C115.518 16.5495 113.401 18.1496 113.401 21.3073C113.401 23.5859 114.146 24.8713 115.91 25.6333C117.322 26.2434 121.04 26.3861 124.064 25.9463L125.931 25.6745V19.9723C125.931 13.2311 125.632 12.2187 123.296 11.0492C121.761 10.2809 118.216 10.0801 115.795 10.6244ZM133.133 10.7369L131.266 11.0893V18.6185V26.1482L133.311 26.0378L135.356 25.9275L135.454 19.9513L135.552 13.9751H136.965C137.905 13.9751 138.618 14.2219 139.09 14.7106C139.736 15.3785 139.802 15.9364 139.802 20.7788V26.1114H141.936H144.07L144.067 21.0546C144.065 15.3833 143.714 13.5176 142.367 12.0421C140.823 10.3493 137.602 9.89401 133.133 10.7369ZM152.605 11.1216C151.725 11.6096 150.53 12.7067 149.949 13.5595C149.077 14.839 148.868 15.5606 148.751 17.6881C148.5 22.2914 150.308 25.1887 154.005 26.1055C155.827 26.5579 159.076 26.3817 160.018 25.7797C160.754 25.3093 160.188 21.9869 159.41 22.2112C156.605 23.0203 154.473 22.6632 153.496 21.2205C153.168 20.7365 152.961 19.5986 152.961 18.2783C152.961 16.3726 153.085 15.9975 154.036 15.0137C155.038 13.9773 155.26 13.9108 157.31 14.0306L159.509 14.159L159.834 12.7501C160.051 11.8097 160.033 11.2106 159.78 10.9491C159.571 10.7336 158.232 10.4846 156.803 10.3956C154.557 10.2559 153.989 10.3541 152.605 11.1216ZM167.958 11.0867C164.534 12.8395 162.966 18.6152 164.877 22.4367C166.384 25.4509 169.981 26.9014 174.167 26.1842C175.475 25.9602 176.665 25.6451 176.812 25.4844C176.959 25.3236 176.967 24.53 176.831 23.7209C176.631 22.5371 176.447 22.2704 175.886 22.3547C175.503 22.4124 174.096 22.4952 172.76 22.5385C170.394 22.6154 170.302 22.5841 169.217 21.3304L168.104 20.0433L172.981 19.941L177.857 19.8388V17.8812C177.857 15.4385 177.319 13.7298 176.119 12.3669C174.204 10.1901 170.764 9.65055 167.958 11.0867ZM86.809 18.3883V26.1482L88.854 26.0378L90.899 25.9275V18.3883V10.8491L88.854 10.7388L86.809 10.6284V18.3883ZM173.207 14.9442C174.498 16.6407 174.231 16.9172 171.298 16.9172C169.843 16.9172 168.571 16.7815 168.472 16.6153C168.372 16.4494 168.601 15.7875 168.979 15.1442C169.564 14.1487 169.874 13.9751 171.069 13.9751C172.159 13.9751 172.634 14.1899 173.207 14.9442ZM187.968 14.4609C187.862 14.7478 187.824 15.8728 187.884 16.961L187.993 18.94H190.305H192.617V16.5495V14.159L190.389 14.0494C188.722 13.9674 188.113 14.0707 187.968 14.4609ZM195.437 14.4609C195.331 14.7478 195.293 15.8728 195.353 16.961L195.462 18.94H197.774H200.085V16.5495V14.159L197.858 14.0494C196.19 13.9674 195.582 14.0707 195.437 14.4609ZM202.99 14.2204C202.86 14.355 202.753 15.5212 202.753 16.8113V19.1573L205.154 19.0488C207.91 18.9238 208.241 18.296 205.696 18.0205C204.026 17.8396 203.998 17.815 203.998 16.5495C203.998 15.3723 204.094 15.2527 205.128 15.149C206.127 15.049 206.271 15.1527 206.373 16.0401C206.436 16.5925 206.682 17.1103 206.919 17.1909C207.455 17.3729 207.878 15.7636 207.562 14.7371C207.362 14.0825 207.04 13.9751 205.278 13.9751C204.15 13.9751 203.12 14.0854 202.99 14.2204ZM191.55 16.5495C191.55 17.7329 191.457 17.8459 190.394 17.9518C189.259 18.065 189.238 18.04 189.238 16.5495C189.238 15.0589 189.259 15.0339 190.394 15.1472C191.457 15.2531 191.55 15.366 191.55 16.5495ZM198.841 16.5726C198.841 18.0371 198.818 18.0647 197.685 17.9518C196.787 17.8624 196.503 17.6462 196.412 16.9823C196.224 15.6128 196.603 15.0784 197.763 15.0784C198.786 15.0784 198.841 15.1542 198.841 16.5726ZM183.785 19.3691C183.654 19.5037 183.547 22.1425 183.547 25.2324C183.547 30.6213 183.58 30.874 184.338 31.423C185.018 31.9155 186.912 31.9957 197.853 31.9957C213.085 31.9957 212.09 32.3152 211.925 27.4758C211.843 25.0846 211.711 24.4564 211.289 24.4564C210.866 24.4564 210.734 25.0868 210.652 27.4949L210.549 30.5338L197.67 30.4371L184.792 30.3407L184.694 24.7323C184.604 19.5843 184.45 18.6803 183.785 19.3691ZM122.019 21.1466V22.8015H120.134C118.176 22.8015 117.395 22.3686 117.395 21.283C117.395 20.1282 118.415 19.4916 120.266 19.4916H122.019V21.1466ZM188.053 22.679C187.922 22.8136 187.815 23.8894 187.815 25.0695C187.815 27.1014 187.861 27.2147 188.688 27.2147C189.526 27.2147 189.552 27.1419 189.35 25.3759L189.139 23.537H190.433C191.667 23.537 191.728 23.5955 191.728 24.7812C191.728 25.7164 191.551 26.0735 191.016 26.218C189.847 26.5343 190.211 27.2147 191.55 27.2147H192.795V24.8242V22.4337H190.542C189.303 22.4337 188.183 22.5441 188.053 22.679ZM195.284 24.8073V27.2147H197.791H200.297L200.191 24.9162L200.085 22.6176L197.685 22.5088L195.284 22.4003V24.8073ZM198.841 24.8242C198.841 26.05 198.781 26.1114 197.596 26.1114C196.41 26.1114 196.351 26.05 196.351 24.8242C196.351 23.5984 196.41 23.537 197.596 23.537C198.781 23.537 198.841 23.5984 198.841 24.8242Z" fill="white"/>
</svg>
