<svg xmlns="http://www.w3.org/2000/svg" xmlns:xlink="http://www.w3.org/1999/xlink" viewBox="0 0 284.21 84.1"><defs><style>.cls-1{fill:url(#radial-gradient);}.cls-2{isolation:isolate;opacity:0.7;fill:url(#linear-gradient);}.cls-3{fill:url(#linear-gradient-2);}.cls-4,.cls-5{fill:#1c0008;}.cls-4{fill-rule:evenodd;}.cls-6{fill:none;}</style><radialGradient id="radial-gradient" cx="-3630.82" cy="-1412.27" r="0.41" gradientTransform="matrix(-144.9, 32.65, 39.12, 173.61, -470774.53, 363765.56)" gradientUnits="userSpaceOnUse"><stop offset="0"/><stop offset="0.12" stop-color="#1c0008"/><stop offset="1" stop-opacity="0"/></radialGradient><linearGradient id="linear-gradient" x1="61.11" y1="-3658.8" x2="61.11" y2="-3692.73" gradientTransform="matrix(1, 0, 0, -1, 0, -3625.06)" gradientUnits="userSpaceOnUse"><stop offset="0" stop-color="#1b0008"/><stop offset="1" stop-color="#1b0008" stop-opacity="0.5"/></linearGradient><linearGradient id="linear-gradient-2" x1="69.18" y1="-3657.97" x2="69.18" y2="-3707.22" gradientTransform="matrix(1, 0, 0, -1, 0, -3625.06)" gradientUnits="userSpaceOnUse"><stop offset="0" stop-color="#150006"/><stop offset="1" stop-color="#1b0008" stop-opacity="0"/></linearGradient></defs><g id="Layer_2" data-name="Layer 2"><g id="Layer_1-2" data-name="Layer 1"><path class="cls-1" d="M76,29.23a1.28,1.28,0,0,1-1.45,1.21,24.66,24.66,0,0,0-5.15,0,35.93,35.93,0,0,0-9,2.42h0l-.48.18a25.52,25.52,0,0,1-8.5,2,18.18,18.18,0,0,1-4-.37,3.16,3.16,0,0,1-2.5-2.46,15.52,15.52,0,0,1-.3-3.07,15.7,15.7,0,0,1,31.4,0Z"/><path class="cls-2" d="M46,37a1.47,1.47,0,0,0-1.68,2L59.7,67.33a.66.66,0,0,0,1.15,0l17-31.18a1.86,1.86,0,0,0-1.21-2.74,22.78,22.78,0,0,0-7-.38,33.13,33.13,0,0,0-8.42,2.28l-.43.16a27.72,27.72,0,0,1-9.34,2.17A21.22,21.22,0,0,1,46,37Z"/><path class="cls-3" d="M60.27,36.21a.79.79,0,0,1,.51-.74l.43-.16A33.13,33.13,0,0,1,69.63,33a22.78,22.78,0,0,1,7,.38,1.86,1.86,0,0,1,1.21,2.74l-17,31.18a.64.64,0,0,1-.58.34Z"/><path class="cls-4" d="M112.93,34.3a18.76,18.76,0,0,0-5.26-.79A19.26,19.26,0,0,0,99,35.61a15,15,0,0,0-6,6,18,18,0,0,0-2.1,8.93,18,18,0,0,0,2.23,8.93,15.77,15.77,0,0,0,6,6,16.41,16.41,0,0,0,8.4,2.23A15.85,15.85,0,0,0,115.43,66a13.37,13.37,0,0,0,5.64-5.52,17,17,0,0,0,2.11-8.8V49.3a.55.55,0,0,0-.55-.55H109a.55.55,0,0,0-.55.55v4.81a.55.55,0,0,0,.55.55h6.22a.36.36,0,0,1,.35.42,9.9,9.9,0,0,1-.55,2,5.87,5.87,0,0,1-2.76,3.15,9.66,9.66,0,0,1-4.73,1,8.74,8.74,0,0,1-7.75-5,12.19,12.19,0,0,1-1.18-5.52,12.19,12.19,0,0,1,1.18-5.52,8.14,8.14,0,0,1,3.29-3.67,8.56,8.56,0,0,1,4.73-1.32,10.24,10.24,0,0,1,4.46,1,8.78,8.78,0,0,1,3.1,2.82.58.58,0,0,0,.79.15l4.89-3.33a.54.54,0,0,0,.15-.73,13.52,13.52,0,0,0-3.41-3.5A16.62,16.62,0,0,0,112.93,34.3ZM155,35.36l5.86-1.54a.55.55,0,0,1,.69.53V66.72a.55.55,0,0,1-.55.55h-5.86a.54.54,0,0,1-.55-.55V35.9A.57.57,0,0,1,155,35.36ZM224.16,49a5.67,5.67,0,0,1,2.89-.78,6.24,6.24,0,0,1,2.89.78,4.85,4.85,0,0,1,2,2.24,9,9,0,0,1,0,7.35,4.44,4.44,0,0,1-2,2.37,5.68,5.68,0,0,1-5.78,0,6,6,0,0,1-2-2.37,9,9,0,0,1,0-7.35A4.7,4.7,0,0,1,224.16,49Zm9.46-5.38a13.15,13.15,0,0,0-6.57-1.58,13.85,13.85,0,0,0-6.56,1.58,11.89,11.89,0,0,0-4.6,4.6,12.74,12.74,0,0,0-1.71,6.7,14.11,14.11,0,0,0,1.71,6.7,11.06,11.06,0,0,0,4.6,4.59,14.43,14.43,0,0,0,13.13,0,11.87,11.87,0,0,0,4.6-4.59,12.76,12.76,0,0,0,1.71-6.7,14.08,14.08,0,0,0-1.71-6.7A11.09,11.09,0,0,0,233.62,43.63ZM183.9,64.77a.11.11,0,0,1,.2,0v1.9a.55.55,0,0,0,.55.55h5.86a.54.54,0,0,0,.55-.55V43.39a.55.55,0,0,0-.55-.55h-5.86a.55.55,0,0,0-.55.55V45.5a.2.2,0,0,1-.35.12,10.4,10.4,0,0,0-1.23-1.34,7.84,7.84,0,0,0-5.78-2.1,9.58,9.58,0,0,0-5.65,1.71,11,11,0,0,0-3.8,4.6A15.44,15.44,0,0,0,166,55.06a15.47,15.47,0,0,0,1.32,6.57,10.85,10.85,0,0,0,3.8,4.59,9.25,9.25,0,0,0,5.65,1.71,10.24,10.24,0,0,0,5.92-1.84A4.5,4.5,0,0,0,183.9,64.77Zm-2.43-3.93a5.68,5.68,0,0,1-5.78,0,6.11,6.11,0,0,1-2-2.37,10.1,10.1,0,0,1-.65-3.54,7.29,7.29,0,0,1,.65-3.42,6.6,6.6,0,0,1,2-2.23,5.59,5.59,0,0,1,2.89-.79,5.24,5.24,0,0,1,2.89.79,5.42,5.42,0,0,1,2,2.23,8.68,8.68,0,0,1,.66,3.42,7.7,7.7,0,0,1-.66,3.54A6,6,0,0,1,181.47,60.84Zm24.88-12.61a.18.18,0,0,0-.18.18v9.41c0,2.23.92,3.41,2.76,3.41H211a.55.55,0,0,1,.55.55v4.94a.54.54,0,0,1-.55.55h-3c-2.76,0-5-.78-6.44-2.36a9.05,9.05,0,0,1-2.36-6.7v-9.8a.19.19,0,0,0-.19-.18H195a.55.55,0,0,1-.52-.73l1.46-4.29a.54.54,0,0,1,.52-.37H199a.19.19,0,0,0,.19-.18V36.08a.54.54,0,0,1,.41-.53l6.09-1.61a.37.37,0,0,1,.46.36v8.36a.18.18,0,0,0,.18.18h4.8a.55.55,0,0,1,.52.73l-1.46,4.28a.54.54,0,0,1-.52.38Zm-67.73-6.18a11.22,11.22,0,0,1,6,1.58,10.75,10.75,0,0,1,4.07,4.6,14,14,0,0,1,1.44,6.7v1.15a.54.54,0,0,1-.55.55H134a.36.36,0,0,0-.35.42,7.3,7.3,0,0,0,.47,1.69,4.76,4.76,0,0,0,2,2.23,7,7,0,0,0,3.15.79,7.53,7.53,0,0,0,3.15-.66,5.47,5.47,0,0,0,2-1.64.58.58,0,0,1,.81-.09l4,3.24a.53.53,0,0,1,.08.75,10.65,10.65,0,0,1-4.14,3.13,15,15,0,0,1-5.91,1.18,14,14,0,0,1-6.7-1.58,10.79,10.79,0,0,1-4.47-4.6,15.08,15.08,0,0,1,0-13.4,12.12,12.12,0,0,1,4.34-4.59A13.37,13.37,0,0,1,138.62,42.05ZM134.2,52a.36.36,0,0,1-.35-.44,7.24,7.24,0,0,1,1-2.32,4.33,4.33,0,0,1,3.81-1.84,4.24,4.24,0,0,1,3.68,1.84,7.37,7.37,0,0,1,.95,2.32.36.36,0,0,1-.35.44Z"/><path class="cls-5" d="M92.44,27.09V14.18h4.41a5.09,5.09,0,0,1,2.52.55,3.48,3.48,0,0,1,1.45,1.47,4.52,4.52,0,0,1,.47,2.06,4.58,4.58,0,0,1-.47,2.08,3.42,3.42,0,0,1-1.44,1.48,5,5,0,0,1-2.5.55H93.72V21h3.11a3.45,3.45,0,0,0,1.69-.36,2.17,2.17,0,0,0,.92-1,3.45,3.45,0,0,0,0-2.77,2.06,2.06,0,0,0-.93-1,3.51,3.51,0,0,0-1.71-.35H94V27.09Z"/><path class="cls-5" d="M107.51,27.29a4.32,4.32,0,0,1-2.32-.62,4.21,4.21,0,0,1-1.56-1.75,5.84,5.84,0,0,1-.56-2.62,5.9,5.9,0,0,1,.56-2.64,4.15,4.15,0,0,1,1.56-1.75,4.59,4.59,0,0,1,4.64,0,4.15,4.15,0,0,1,1.56,1.75A5.9,5.9,0,0,1,112,22.3a5.84,5.84,0,0,1-.56,2.62,4.21,4.21,0,0,1-1.56,1.75A4.3,4.3,0,0,1,107.51,27.29Zm0-1.34a2.61,2.61,0,0,0,1.66-.51,3,3,0,0,0,1-1.34,5,5,0,0,0,.31-1.8,5.1,5.1,0,0,0-.31-1.81,3.13,3.13,0,0,0-1-1.36,3,3,0,0,0-3.32,0,3.13,3.13,0,0,0-1,1.36,5.1,5.1,0,0,0-.31,1.81,5,5,0,0,0,.31,1.8,3,3,0,0,0,1,1.34A2.63,2.63,0,0,0,107.51,26Z"/><path class="cls-5" d="M116.13,27.09l-3-9.68h1.58l2.11,7.41H117L119,17.41h1.6l2.07,7.38h.1l2.12-7.38h1.58l-3,9.68h-1.48l-2.14-7.44h-.16l-2.14,7.44Z"/><path class="cls-5" d="M132.27,27.29a4.68,4.68,0,0,1-2.44-.62,4.08,4.08,0,0,1-1.57-1.74,5.8,5.8,0,0,1-.55-2.61,5.9,5.9,0,0,1,.55-2.62,4.32,4.32,0,0,1,1.54-1.78,4.25,4.25,0,0,1,2.32-.64,4.93,4.93,0,0,1,1.51.25,3.76,3.76,0,0,1,1.36.82,3.9,3.9,0,0,1,1,1.49,6.12,6.12,0,0,1,.37,2.28v.63h-7.55V21.47h6a3.18,3.18,0,0,0-.33-1.47,2.58,2.58,0,0,0-.93-1,2.93,2.93,0,0,0-3,.07,3,3,0,0,0-1,1.13,3.37,3.37,0,0,0-.35,1.5v.86a4.06,4.06,0,0,0,.39,1.86,2.71,2.71,0,0,0,1.07,1.15,3.21,3.21,0,0,0,1.6.39,3.31,3.31,0,0,0,1.08-.16,2.15,2.15,0,0,0,.83-.51,2.26,2.26,0,0,0,.54-.84l1.45.4a3.16,3.16,0,0,1-.77,1.29,3.68,3.68,0,0,1-1.34.86A5,5,0,0,1,132.27,27.29Z"/><path class="cls-5" d="M138.62,27.09V17.41h1.46v1.46h.1a2.34,2.34,0,0,1,1-1.17,2.91,2.91,0,0,1,1.58-.44h.41l.38,0v1.51l-.35-.06a5.1,5.1,0,0,0-.57,0,2.62,2.62,0,0,0-1.27.3,2.2,2.2,0,0,0-.88.8,2.15,2.15,0,0,0-.32,1.17v6.13Z"/><path class="cls-5" d="M149.1,27.29a4.68,4.68,0,0,1-2.44-.62,4.08,4.08,0,0,1-1.57-1.74,5.8,5.8,0,0,1-.55-2.61,5.9,5.9,0,0,1,.55-2.62,4.32,4.32,0,0,1,1.54-1.78,4.25,4.25,0,0,1,2.32-.64,4.93,4.93,0,0,1,1.51.25,3.76,3.76,0,0,1,1.36.82,3.9,3.9,0,0,1,1,1.49,6.12,6.12,0,0,1,.37,2.28v.63h-7.55V21.47h6A3.18,3.18,0,0,0,151.3,20a2.58,2.58,0,0,0-.93-1,2.93,2.93,0,0,0-3,.07,3,3,0,0,0-1,1.13,3.37,3.37,0,0,0-.35,1.5v.86a4.06,4.06,0,0,0,.39,1.86,2.71,2.71,0,0,0,1.07,1.15,3.21,3.21,0,0,0,1.6.39,3.31,3.31,0,0,0,1.08-.16,2.15,2.15,0,0,0,.83-.51,2.26,2.26,0,0,0,.54-.84l1.45.4a3.16,3.16,0,0,1-.77,1.29,3.68,3.68,0,0,1-1.34.86A5,5,0,0,1,149.1,27.29Z"/><path class="cls-5" d="M159.15,27.29a3.82,3.82,0,0,1-2.16-.61,4.14,4.14,0,0,1-1.47-1.74,6.26,6.26,0,0,1-.53-2.67,6.16,6.16,0,0,1,.53-2.64A4.16,4.16,0,0,1,157,17.89a4,4,0,0,1,2.18-.61,3.2,3.2,0,0,1,1.51.31,2.67,2.67,0,0,1,.85.71c.2.26.36.48.47.65h.12V14.18h1.51V27.09h-1.46V25.6H162a7.73,7.73,0,0,1-.48.67,2.77,2.77,0,0,1-.87.71A3.11,3.11,0,0,1,159.15,27.29Zm.2-1.34a2.41,2.41,0,0,0,1.53-.47,2.78,2.78,0,0,0,1-1.3,5.8,5.8,0,0,0,0-3.83,2.74,2.74,0,0,0-.94-1.27,2.52,2.52,0,0,0-1.55-.46,2.59,2.59,0,0,0-1.59.48,2.94,2.94,0,0,0-.95,1.3,5.17,5.17,0,0,0-.31,1.85,5.28,5.28,0,0,0,.32,1.87,3,3,0,0,0,1,1.34A2.45,2.45,0,0,0,159.35,26Z"/><path class="cls-5" d="M171.85,27.09V14.18h1.5V19h.13c.11-.17.27-.39.46-.65a2.72,2.72,0,0,1,.86-.71,3.18,3.18,0,0,1,1.51-.31,4,4,0,0,1,2.18.61A4.07,4.07,0,0,1,180,19.63a6,6,0,0,1,.53,2.64,6.12,6.12,0,0,1-.53,2.67,4.12,4.12,0,0,1-1.46,1.74,3.87,3.87,0,0,1-2.16.61,3.09,3.09,0,0,1-1.51-.31,2.94,2.94,0,0,1-.88-.71c-.2-.27-.36-.49-.47-.67h-.18v1.49Zm1.48-4.84a5.46,5.46,0,0,0,.32,1.93,2.92,2.92,0,0,0,.95,1.3,2.44,2.44,0,0,0,1.53.47,2.48,2.48,0,0,0,1.58-.49,3.11,3.11,0,0,0,1-1.34,5.28,5.28,0,0,0,.32-1.87,5.17,5.17,0,0,0-.32-1.85,2.87,2.87,0,0,0-.95-1.3,2.55,2.55,0,0,0-1.59-.48,2.51,2.51,0,0,0-1.54.46,2.68,2.68,0,0,0-.94,1.27A5,5,0,0,0,173.33,22.25Z"/><path class="cls-5" d="M183.4,30.69a3.51,3.51,0,0,1-.68-.06,2,2,0,0,1-.42-.11l.39-1.31a2.26,2.26,0,0,0,1.37,0,2.12,2.12,0,0,0,.95-1.3l.28-.76-3.62-9.73h1.63l2.7,7.71h.1l2.71-7.71,1.64,0L186.28,28.5a4.25,4.25,0,0,1-.69,1.23,2.76,2.76,0,0,1-1,.72A3,3,0,0,1,183.4,30.69Z"/><rect class="cls-6" width="284.21" height="84.1" rx="10"/></g></g></svg>