<svg width="168" height="24" viewBox="0 0 168 24" fill="none" xmlns="http://www.w3.org/2000/svg">
<g clip-path="url(#clip0_1966_10368)">
<path d="M1.25879 16.0007V7.27344H4.70197C5.3639 7.27344 5.92782 7.39986 6.39373 7.6527C6.85964 7.9027 7.21476 8.25071 7.45907 8.69673C7.70623 9.13991 7.82981 9.65128 7.82981 10.2308C7.82981 10.8104 7.70481 11.3217 7.45481 11.7649C7.20481 12.2081 6.8426 12.5533 6.36816 12.8004C5.89657 13.0476 5.32555 13.1712 4.6551 13.1712H2.46049V11.6925H4.3568C4.71191 11.6925 5.00453 11.6314 5.23464 11.5092C5.4676 11.3842 5.64089 11.2124 5.75453 10.9936C5.87101 10.772 5.92924 10.5178 5.92924 10.2308C5.92924 9.94105 5.87101 9.68821 5.75453 9.4723C5.64089 9.25355 5.4676 9.08452 5.23464 8.9652C5.00169 8.84304 4.70623 8.78196 4.34828 8.78196H3.10396V16.0007H1.25879Z" fill="white"/>
<path d="M11.2923 16.1286C10.6304 16.1286 10.0579 15.9879 9.57496 15.7067C9.09485 15.4226 8.72411 15.0277 8.46274 14.522C8.20138 14.0135 8.0707 13.424 8.0707 12.7536C8.0707 12.0774 8.20138 11.4865 8.46274 10.9808C8.72411 10.4723 9.09485 10.0774 9.57496 9.79616C10.0579 9.51207 10.6304 9.37003 11.2923 9.37003C11.9542 9.37003 12.5252 9.51207 13.0054 9.79616C13.4883 10.0774 13.8605 10.4723 14.1218 10.9808C14.3832 11.4865 14.5139 12.0774 14.5139 12.7536C14.5139 13.424 14.3832 14.0135 14.1218 14.522C13.8605 15.0277 13.4883 15.4226 13.0054 15.7067C12.5252 15.9879 11.9542 16.1286 11.2923 16.1286ZM11.3008 14.7223C11.6019 14.7223 11.8534 14.6371 12.0551 14.4666C12.2568 14.2933 12.4088 14.0575 12.511 13.7592C12.6162 13.4609 12.6687 13.1214 12.6687 12.7408C12.6687 12.3601 12.6162 12.0206 12.511 11.7223C12.4088 11.424 12.2568 11.1882 12.0551 11.0149C11.8534 10.8416 11.6019 10.755 11.3008 10.755C10.9968 10.755 10.7412 10.8416 10.5338 11.0149C10.3292 11.1882 10.1744 11.424 10.0693 11.7223C9.96701 12.0206 9.91587 12.3601 9.91587 12.7408C9.91587 13.1214 9.96701 13.4609 10.0693 13.7592C10.1744 14.0575 10.3292 14.2933 10.5338 14.4666C10.7412 14.6371 10.9968 14.7223 11.3008 14.7223Z" fill="white"/>
<path d="M16.2676 16.0007L14.4863 9.45526H16.3229L17.3372 13.853H17.3968L18.4536 9.45526H20.2562L21.3301 13.8274H21.3854L22.3826 9.45526H24.215L22.438 16.0007H20.5161L19.3911 11.8842H19.3102L18.1852 16.0007H16.2676Z" fill="white"/>
<path d="M27.4484 16.1286C26.7751 16.1286 26.1956 15.9922 25.7098 15.7195C25.2268 15.4439 24.8547 15.0547 24.5933 14.5518C24.3319 14.0462 24.2013 13.4482 24.2013 12.7578C24.2013 12.0845 24.3319 11.4936 24.5933 10.9851C24.8547 10.4766 25.2226 10.0803 25.697 9.79616C26.1743 9.51207 26.7339 9.37003 27.376 9.37003C27.8078 9.37003 28.2098 9.43963 28.5819 9.57884C28.9569 9.7152 29.2837 9.92116 29.5621 10.1967C29.8433 10.4723 30.0621 10.8189 30.2183 11.2365C30.3746 11.6513 30.4527 12.1371 30.4527 12.6939V13.1925H24.9257V12.0675H28.7439C28.7439 11.8061 28.6871 11.5746 28.5734 11.3729C28.4598 11.1712 28.3021 11.0135 28.1004 10.8999C27.9015 10.7834 27.67 10.7251 27.4058 10.7251C27.1302 10.7251 26.8859 10.7891 26.6729 10.9169C26.4626 11.0419 26.2979 11.2109 26.1785 11.424C26.0592 11.6342 25.9981 11.8686 25.9953 12.1271V13.1967C25.9953 13.5206 26.055 13.8004 26.1743 14.0362C26.2964 14.272 26.4683 14.4538 26.6899 14.5817C26.9115 14.7095 27.1743 14.7734 27.4783 14.7734C27.68 14.7734 27.8646 14.745 28.0322 14.6882C28.1998 14.6314 28.3433 14.5462 28.4626 14.4325C28.5819 14.3189 28.6729 14.1797 28.7354 14.0149L30.4143 14.1257C30.3291 14.5291 30.1544 14.8814 29.8902 15.1825C29.6288 15.4808 29.2908 15.7138 28.876 15.8814C28.464 16.0462 27.9882 16.1286 27.4484 16.1286Z" fill="white"/>
<path d="M31.0835 16.0007V9.45526H32.8434V10.5973H32.9116C33.0309 10.1911 33.2312 9.88423 33.5125 9.67685C33.7937 9.46662 34.1176 9.36151 34.4841 9.36151C34.575 9.36151 34.673 9.36719 34.7781 9.37855C34.8832 9.38991 34.9755 9.40554 35.0551 9.42543V11.0362C34.9698 11.0107 34.852 10.9879 34.7014 10.968C34.5508 10.9482 34.413 10.9382 34.288 10.9382C34.021 10.9382 33.7824 10.9964 33.5721 11.1129C33.3647 11.2266 33.2 11.3857 33.0778 11.5902C32.9585 11.7947 32.8988 12.0305 32.8988 12.2976V16.0007H31.0835Z" fill="white"/>
<path d="M38.118 16.1286C37.4448 16.1286 36.8652 15.9922 36.3794 15.7195C35.8965 15.4439 35.5243 15.0547 35.2629 14.5518C35.0016 14.0462 34.8709 13.4482 34.8709 12.7578C34.8709 12.0845 35.0016 11.4936 35.2629 10.9851C35.5243 10.4766 35.8922 10.0803 36.3666 9.79616C36.8439 9.51207 37.4036 9.37003 38.0456 9.37003C38.4774 9.37003 38.8794 9.43963 39.2516 9.57884C39.6266 9.7152 39.9533 9.92116 40.2317 10.1967C40.5129 10.4723 40.7317 10.8189 40.8879 11.2365C41.0442 11.6513 41.1223 12.1371 41.1223 12.6939V13.1925H35.5953V12.0675H39.4135C39.4135 11.8061 39.3567 11.5746 39.243 11.3729C39.1294 11.1712 38.9717 11.0135 38.77 10.8999C38.5712 10.7834 38.3396 10.7251 38.0754 10.7251C37.7999 10.7251 37.5556 10.7891 37.3425 10.9169C37.1323 11.0419 36.9675 11.2109 36.8482 11.424C36.7288 11.6342 36.6678 11.8686 36.6649 12.1271V13.1967C36.6649 13.5206 36.7246 13.8004 36.8439 14.0362C36.9661 14.272 37.1379 14.4538 37.3595 14.5817C37.5811 14.7095 37.8439 14.7734 38.1479 14.7734C38.3496 14.7734 38.5342 14.745 38.7019 14.6882C38.8695 14.6314 39.0129 14.5462 39.1323 14.4325C39.2516 14.3189 39.3425 14.1797 39.405 14.0149L41.084 14.1257C40.9987 14.5291 40.824 14.8814 40.5598 15.1825C40.2984 15.4808 39.9604 15.7138 39.5456 15.8814C39.1337 16.0462 38.6578 16.1286 38.118 16.1286Z" fill="white"/>
<path d="M44.165 16.1072C43.6679 16.1072 43.2176 15.9794 42.8142 15.7237C42.4136 15.4652 42.0954 15.0859 41.8596 14.5859C41.6267 14.0831 41.5102 13.4666 41.5102 12.7365C41.5102 11.9865 41.631 11.3629 41.8724 10.8658C42.1139 10.3658 42.4349 9.99219 42.8355 9.74503C43.2389 9.49503 43.6807 9.37003 44.1608 9.37003C44.5273 9.37003 44.8327 9.43253 45.077 9.55753C45.3241 9.67969 45.523 9.8331 45.6736 10.0178C45.827 10.1996 45.9435 10.3786 46.023 10.5547H46.0784V7.27344H47.8895V16.0007H46.0997V14.9524H46.023C45.9378 15.1342 45.817 15.3146 45.6608 15.4936C45.5074 15.6697 45.3071 15.8161 45.0599 15.9325C44.8156 16.049 44.5173 16.1072 44.165 16.1072ZM44.7403 14.6626C45.0329 14.6626 45.2801 14.5831 45.4818 14.424C45.6864 14.2621 45.8426 14.0362 45.9506 13.7464C46.0614 13.4567 46.1168 13.1172 46.1168 12.728C46.1168 12.3388 46.0628 12.0007 45.9548 11.7138C45.8469 11.4268 45.6906 11.2053 45.4861 11.049C45.2815 10.8928 45.0329 10.8146 44.7403 10.8146C44.442 10.8146 44.1906 10.8956 43.9861 11.0575C43.7815 11.2195 43.6267 11.4439 43.5216 11.7308C43.4165 12.0178 43.3639 12.3501 43.3639 12.728C43.3639 13.1087 43.4165 13.4453 43.5216 13.7379C43.6295 14.0277 43.7844 14.255 43.9861 14.4197C44.1906 14.5817 44.442 14.6626 44.7403 14.6626Z" fill="white"/>
<path d="M51.0857 16.0007V7.27344H52.9011V10.5547H52.9565C53.036 10.3786 53.1511 10.1996 53.3016 10.0178C53.4551 9.8331 53.6539 9.67969 53.8982 9.55753C54.1454 9.43253 54.4522 9.37003 54.8187 9.37003C55.296 9.37003 55.7363 9.49503 56.1397 9.74503C56.5431 9.99219 56.8656 10.3658 57.107 10.8658C57.3485 11.3629 57.4693 11.9865 57.4693 12.7365C57.4693 13.4666 57.3514 14.0831 57.1156 14.5859C56.8826 15.0859 56.5644 15.4652 56.161 15.7237C55.7605 15.9794 55.3116 16.1072 54.8144 16.1072C54.4622 16.1072 54.1624 16.049 53.9153 15.9325C53.671 15.8161 53.4707 15.6697 53.3144 15.4936C53.1582 15.3146 53.0389 15.1342 52.9565 14.9524H52.8755V16.0007H51.0857ZM52.8627 12.728C52.8627 13.1172 52.9167 13.4567 53.0247 13.7464C53.1326 14.0362 53.2889 14.2621 53.4934 14.424C53.698 14.5831 53.9465 14.6626 54.2392 14.6626C54.5346 14.6626 54.7846 14.5817 54.9892 14.4197C55.1937 14.255 55.3485 14.0277 55.4536 13.7379C55.5616 13.4453 55.6156 13.1087 55.6156 12.728C55.6156 12.3501 55.563 12.0178 55.4579 11.7308C55.3528 11.4439 55.198 11.2195 54.9934 11.0575C54.7889 10.8956 54.5374 10.8146 54.2392 10.8146C53.9437 10.8146 53.6937 10.8928 53.4891 11.049C53.2874 11.2053 53.1326 11.4268 53.0247 11.7138C52.9167 12.0007 52.8627 12.3388 52.8627 12.728Z" fill="white"/>
<path d="M59.0365 18.4553C58.8064 18.4553 58.5905 18.4368 58.3888 18.3999C58.1899 18.3658 58.0251 18.3217 57.8945 18.2678L58.3035 16.9126C58.5166 16.978 58.7084 17.0135 58.8788 17.0192C59.0521 17.0249 59.2013 16.9851 59.3263 16.8999C59.4541 16.8146 59.5578 16.6697 59.6373 16.4652L59.7439 16.1882L57.3959 9.45526H59.305L60.6601 14.2621H60.7283L62.0962 9.45526H64.018L61.474 16.7081C61.3518 17.0604 61.1856 17.3672 60.9754 17.6286C60.768 17.8928 60.5052 18.0959 60.1871 18.2379C59.8689 18.3828 59.4854 18.4553 59.0365 18.4553Z" fill="white"/>
</g>
<path d="M88.5586 6.98908C88.5566 7.32271 88.2504 7.55868 87.9193 7.52378C87.0985 7.43727 86.3465 7.44446 85.6435 7.51781C84.1132 7.67746 82.8415 8.15013 81.6691 8.58589L81.6665 8.58685C81.5956 8.61322 81.525 8.63945 81.4547 8.66547C80.2098 9.12654 79.0627 9.52317 77.7017 9.55465C77.1588 9.56721 76.5738 9.52149 75.9298 9.39174C75.3773 9.28045 74.936 8.85814 74.8265 8.30423C74.7398 7.86531 74.6943 7.41152 74.6943 6.94708C74.6943 3.11031 77.798 0 81.6265 0C85.4551 0 88.5587 3.11031 88.5587 6.94708C88.5587 6.96109 88.5587 6.97509 88.5586 6.98908Z" fill="url(#paint0_radial_1966_10368)"/>
<path d="M75.3109 10.4414C74.7903 10.3161 74.3153 10.8767 74.5716 11.3477L81.3761 23.8493C81.4856 24.0505 81.7738 24.0505 81.8833 23.8493L89.3936 10.0508C89.66 9.5614 89.4037 8.94835 88.8582 8.83913C87.6714 8.60152 86.6603 8.57598 85.7603 8.66987C84.3795 8.81393 83.2326 9.23967 82.0421 9.68163C81.979 9.70504 81.9158 9.7285 81.8525 9.75197C80.6061 10.2136 79.2981 10.6763 77.7255 10.7126C76.9781 10.7299 76.182 10.6511 75.3109 10.4414Z" fill="url(#paint1_linear_1966_10368)"/>
<path d="M81.627 10.0768C81.627 9.93178 81.7173 9.80223 81.853 9.75197C81.9164 9.7285 81.9796 9.70504 82.0427 9.68163C83.2332 9.23967 84.3801 8.81393 85.7609 8.66987C86.6609 8.57598 87.672 8.60152 88.8588 8.83913C89.4043 8.94835 89.6606 9.5614 89.3942 10.0508L81.8838 23.8493C81.8285 23.951 81.7275 24.0013 81.627 24.0002V10.0768Z" fill="url(#paint2_linear_1966_10368)"/>
<path fill-rule="evenodd" clip-rule="evenodd" d="M106.16 4.06824C105.272 3.81441 104.447 3.6875 103.622 3.6875C102.099 3.6875 100.703 4.06824 99.4342 4.70276C98.1651 5.40072 97.2133 6.35251 96.5153 7.62156C95.8173 8.8906 95.5 10.2866 95.5 11.9363C95.5 13.5861 95.8808 14.982 96.5788 16.2511C97.2765 17.5201 98.2918 18.4719 99.4974 19.1699C100.703 19.8679 102.035 20.2486 103.559 20.2486C104.954 20.2486 106.223 19.9948 107.366 19.3603C108.508 18.7892 109.396 17.9009 110.094 16.6952C110.792 15.4896 111.109 14.0937 111.109 12.4439V11.746C111.109 11.6574 111.109 11.555 111.109 11.4453L111.11 11.3137C111.11 11.167 110.991 11.048 110.844 11.048H104.267C104.12 11.048 104.001 11.167 104.001 11.3137V13.6376C104.001 13.7844 104.12 13.9034 104.267 13.9034H107.269C107.377 13.9034 107.46 13.9997 107.441 14.1061C107.378 14.4488 107.289 14.76 107.175 15.0455C106.921 15.7435 106.477 16.1876 105.843 16.5683C105.272 16.8856 104.51 17.076 103.559 17.076C102.797 17.076 102.035 16.8222 101.401 16.4415C100.703 15.9973 100.195 15.4262 99.8146 14.6648C99.4342 13.9034 99.2436 13.015 99.2436 11.9998C99.2436 10.9845 99.4342 10.0962 99.8146 9.33478C100.195 8.57334 100.703 7.93882 101.401 7.55812C102.099 7.11395 102.861 6.9236 103.685 6.9236C104.447 6.9236 105.208 7.11395 105.843 7.43121C106.407 7.7132 106.921 8.19571 107.34 8.78961C107.426 8.91223 107.595 8.94752 107.719 8.86297L110.08 7.25344C110.195 7.17486 110.23 7.02013 110.154 6.90311C109.721 6.23463 109.14 5.67039 108.508 5.21037C107.746 4.70276 107.048 4.32202 106.16 4.06824ZM126.483 4.58194L129.315 3.83616C129.483 3.79178 129.648 3.91887 129.648 4.09313V19.729C129.648 19.8758 129.529 19.9947 129.382 19.9947H126.551C126.404 19.9947 126.285 19.8758 126.285 19.729V4.83891C126.285 4.71822 126.367 4.61268 126.483 4.58194ZM159.886 11.1748C160.33 10.921 160.774 10.7941 161.282 10.7941C161.853 10.7941 162.297 10.9845 162.678 11.1748C163.058 11.3652 163.376 11.7459 163.629 12.2535C163.883 12.7611 164.01 13.3322 164.01 14.0302C164.01 14.7282 163.883 15.2992 163.629 15.8069C163.439 16.3145 163.122 16.6952 162.678 16.949C162.297 17.2028 161.789 17.3297 161.282 17.3297C160.774 17.3297 160.266 17.2028 159.886 16.949C159.505 16.6952 159.188 16.3145 158.934 15.8069C158.68 15.2992 158.553 14.7282 158.553 14.0302C158.553 13.3322 158.68 12.7611 158.934 12.2535C159.124 11.8094 159.442 11.4286 159.886 11.1748ZM164.454 8.57329C163.566 8.06567 162.487 7.81185 161.282 7.81185C160.14 7.81185 159.061 8.06567 158.109 8.57329C157.157 9.08091 156.459 9.84234 155.888 10.7941C155.317 11.7459 155.063 12.8246 155.063 14.0302C155.063 15.2358 155.381 16.3145 155.888 17.2663C156.396 18.2181 157.157 18.9795 158.109 19.4871C159.061 19.9947 160.14 20.2485 161.282 20.2485C162.424 20.2485 163.502 19.9947 164.454 19.4871C165.406 18.9795 166.104 18.2181 166.675 17.2663C167.246 16.3145 167.5 15.2358 167.5 14.0302C167.5 12.8246 167.183 11.7459 166.675 10.7941C166.167 9.84234 165.406 9.08091 164.454 8.57329ZM140.438 18.7852C140.463 18.745 140.536 18.7635 140.536 18.8109V19.7291C140.536 19.8759 140.654 19.9948 140.801 19.9948H143.633C143.779 19.9948 143.898 19.8759 143.898 19.7291V8.45843C143.898 8.31168 143.779 8.19271 143.633 8.19271H140.801C140.654 8.19271 140.536 8.31168 140.536 8.45843V9.47973C140.536 9.56696 140.42 9.60354 140.367 9.53437C140.189 9.30274 139.991 9.08754 139.774 8.89067C139.076 8.19271 138.124 7.87544 136.982 7.87544C135.967 7.87544 135.079 8.12927 134.254 8.70036C133.492 9.20797 132.858 9.9694 132.414 10.9212C131.969 11.873 131.779 12.9516 131.779 14.0938C131.779 15.2359 131.969 16.3146 132.414 17.2664C132.858 18.2182 133.429 18.9162 134.254 19.4873C135.015 20.0583 135.967 20.3121 136.982 20.3121C138.188 20.3121 139.076 19.9314 139.837 19.4238C140.128 19.2301 140.328 18.9601 140.438 18.7852ZM139.266 16.8857C138.822 17.1395 138.378 17.2664 137.87 17.2664C137.363 17.2664 136.919 17.1395 136.474 16.8857C136.094 16.6319 135.777 16.2512 135.523 15.7436C135.332 15.2359 135.205 14.6649 135.205 14.0303C135.205 13.3958 135.269 12.8882 135.523 12.3805C135.777 11.9364 136.094 11.5557 136.474 11.3019C136.919 11.0481 137.363 10.9212 137.87 10.9212C138.378 10.9212 138.886 11.0481 139.266 11.3019C139.647 11.5557 139.964 11.8729 140.218 12.3805C140.409 12.8247 140.536 13.3958 140.536 14.0303C140.536 14.6649 140.472 15.2359 140.218 15.7436C139.964 16.2512 139.647 16.6319 139.266 16.8857ZM151.282 10.7942C151.234 10.7942 151.194 10.8338 151.194 10.8828V15.4262C151.194 16.5049 151.638 17.0759 152.526 17.0759H153.53C153.677 17.0759 153.795 17.1949 153.795 17.3417V19.729C153.795 19.8758 153.677 19.9948 153.53 19.9948H152.082C150.75 19.9948 149.671 19.614 148.973 18.8526C148.212 18.0912 147.831 17.0125 147.831 15.6165V10.8828C147.831 10.8338 147.791 10.7942 147.742 10.7942H145.779C145.597 10.7942 145.469 10.6152 145.527 10.4428L146.232 8.37269C146.269 8.26501 146.37 8.19261 146.484 8.19261H147.742C147.791 8.19261 147.831 8.15295 147.831 8.10403V4.92752C147.831 4.80683 147.912 4.70129 148.029 4.67055L150.972 3.8955C151.084 3.86591 151.194 3.95064 151.194 4.06681V8.10403C151.194 8.15295 151.234 8.19261 151.282 8.19261H153.601C153.784 8.19261 153.912 8.3716 153.853 8.54398L153.148 10.6141C153.112 10.7218 153.01 10.7942 152.897 10.7942H151.282ZM118.57 7.81185C119.712 7.81185 120.664 8.06568 121.489 8.57329C122.313 9.0809 123.011 9.84234 123.456 10.7941C123.963 11.7459 124.154 12.8246 124.154 14.0302V14.5894C124.154 14.7361 124.035 14.8551 123.888 14.8551H116.357C116.25 14.8551 116.167 14.95 116.185 15.0559C116.241 15.3735 116.319 15.6524 116.412 15.8703C116.666 16.3779 116.984 16.7587 117.364 16.949C117.745 17.1394 118.253 17.3297 118.887 17.3297C119.458 17.3297 120.029 17.2028 120.41 17.0125C120.777 16.8551 121.101 16.5678 121.381 16.2221C121.477 16.1032 121.652 16.0787 121.771 16.1751L123.701 17.7396C123.812 17.8296 123.832 17.9917 123.742 18.1023C123.201 18.7637 122.551 19.2676 121.742 19.614C120.854 19.9947 119.902 20.1851 118.887 20.1851C117.681 20.1851 116.603 19.9313 115.651 19.4236C114.699 18.916 114.001 18.1546 113.494 17.2028C112.986 16.251 112.732 15.1724 112.732 13.9667C112.732 12.7611 112.986 11.6825 113.494 10.7307C114.001 9.7789 114.699 9.0809 115.587 8.50985C116.476 8.06568 117.428 7.81185 118.57 7.81185ZM116.432 12.6343C116.32 12.6343 116.236 12.5319 116.263 12.4234C116.374 11.9669 116.536 11.5931 116.729 11.3017C117.11 10.7306 117.745 10.4134 118.57 10.4134C119.331 10.4134 119.966 10.7306 120.346 11.3017C120.536 11.5863 120.694 11.9653 120.805 12.4231C120.832 12.5318 120.747 12.6343 120.636 12.6343H116.432Z" fill="white"/>
<defs>
<radialGradient id="paint0_radial_1966_10368" cx="0" cy="0" r="1" gradientUnits="userSpaceOnUse" gradientTransform="translate(85.8295 2.02623) rotate(149.79) scale(12.0708 14.4781)">
<stop offset="0.116813" stop-color="white"/>
<stop offset="0.734375" stop-color="#8F8F8F"/>
<stop offset="1" stop-color="#9D9D9D"/>
</radialGradient>
<linearGradient id="paint1_linear_1966_10368" x1="81.9998" y1="8.98557" x2="81.9998" y2="24.0002" gradientUnits="userSpaceOnUse">
<stop stop-color="#919191"/>
<stop offset="0.46875" stop-color="#7E7E7E"/>
<stop offset="1" stop-color="#969696"/>
</linearGradient>
<linearGradient id="paint2_linear_1966_10368" x1="85.5636" y1="8.61914" x2="85.5636" y2="25.0002" gradientUnits="userSpaceOnUse">
<stop stop-color="white"/>
<stop offset="0.197917" stop-color="#EDEDED"/>
<stop offset="1" stop-color="#ABABAB"/>
</linearGradient>
<clipPath id="clip0_1966_10368">
<rect width="64" height="12" fill="white" transform="translate(0.5 6)"/>
</clipPath>
</defs>
</svg>
